<?xml version="1.0" encoding="utf-8"?>
<!-- Generator: Adobe Illustrator 25.0.1, SVG Export Plug-In . SVG Version: 6.00 Build 0)  -->
<svg version="1.0" id="katman_1" xmlns="http://www.w3.org/2000/svg" xmlns:xlink="http://www.w3.org/1999/xlink" x="0px" y="0px"
	 viewBox="0 0 2856 1763" style="enable-background:new 0 0 2856 1763;" xml:space="preserve">
<style type="text/css">
	.st0{fill-rule:evenodd;clip-rule:evenodd;fill:#193650;}
	.st1{fill:url(#SVGID_1_);}
	.st2{fill:url(#SVGID_2_);}
	.st3{fill:url(#SVGID_3_);}
	.st4{fill:url(#SVGID_4_);}
</style>
<path class="st0" d="M998.9,951l-28.8-50H928v50h-24.8V800.8h74.7c9.1-0.1,18.1,2.4,25.9,7.1c7.8,4.7,14.2,11.4,18.5,19.5
	c4.3,8.1,6.2,17.2,5.7,26.3c-0.5,9.1-3.5,18-8.7,25.5c-5.4,8-13,14.2-21.9,17.9L1028,951H998.9z M977.8,826.3H928v49.9h49.9
	c3.3,0,6.5-0.7,9.5-2c3-1.3,5.7-3.2,7.9-5.6c3.4-3.5,5.8-7.9,6.7-12.8c0.9-4.8,0.4-9.8-1.4-14.4c-1.9-4.5-5-8.4-9.1-11.2
	c-4.1-2.8-8.8-4.3-13.7-4.3L977.8,826.3z M1243.4,800.8L1168.5,951h27.8l47-94.1l46.9,94.1h27.8L1243.4,800.8z M1558.6,800.8h-31.7
	l-42.6,55.4l-42.4-55.4h-31.8l62.4,80.1V951h24.8v-71.3L1558.6,800.8z M1685.7,800.8h49.7c19.8,0.1,38.7,8.1,52.6,22.2
	c14,14,21.9,33.1,22,52.9c-0.1,19.9-8,38.9-22,53c-14,14.1-32.9,22-52.7,22.1h-49.7V800.8z M1735.4,925.5c13.2,0,25.8-5.3,35.1-14.7
	c9.3-9.4,14.6-22.1,14.6-35.3c-0.2-13.2-5.4-25.9-14.7-35.2c-9.3-9.3-21.9-14.7-35-14.8h-25.1v100H1735.4z M1975.9,800.8h-24.8V951
	h24.8V800.8z M2241.3,888.3c0.1,8.3-1.4,16.5-4.6,24.1c-3.1,7.6-7.8,14.5-13.8,20.2c-8.7,8.8-19.8,14.7-31.9,17.1
	c-12.1,2.4-24.6,1.2-36-3.6c-11.4-4.7-21.1-12.8-27.9-23.1c-6.8-10.3-10.4-22.4-10.4-34.8v-87.4h24.8v87.4c0,10,3.9,19.5,11,26.5
	c7,7,16.5,11,26.4,11c9.9,0,19.4-4,26.4-11c7-7,10.9-16.6,10.9-26.5v-87.4h25V888.3z M2407,951v-89.8l50,50.1l49.8-50.1V951h25.2
	V800.8l-75,75.1l-74.7-75.1V951H2407z"/>
<linearGradient id="SVGID_1_" gradientUnits="userSpaceOnUse" x1="522.189" y1="1123.455" x2="-63.6454" y2="890.428" gradientTransform="matrix(1 0 0 -1 242.34 1883.04)">
	<stop  offset="0" style="stop-color:#C200FB"/>
	<stop  offset="0.4897" style="stop-color:#3772FF"/>
	<stop  offset="0.4898" style="stop-color:#3773FE"/>
	<stop  offset="1" style="stop-color:#5AC4BE"/>
</linearGradient>
<path class="st1" d="M718.9,796.1v223.3l-247.1,143.4l-247.2-143.4V732.6L471.9,589l189.9,110.3l28.7-16.6L471.9,555.8L196,715.9
	v320.1l275.9,160.1l275.9-160.1V779.5L718.9,796.1z"/>
<linearGradient id="SVGID_2_" gradientUnits="userSpaceOnUse" x1="511.0092" y1="1151.5591" x2="-74.8239" y2="918.5308" gradientTransform="matrix(1 0 0 -1 242.34 1883.04)">
	<stop  offset="0" style="stop-color:#C200FB"/>
	<stop  offset="0.4897" style="stop-color:#3772FF"/>
	<stop  offset="0.4898" style="stop-color:#3773FE"/>
	<stop  offset="1" style="stop-color:#5AC4BE"/>
</linearGradient>
<path class="st2" d="M402.7,1019.6h-41.3V880.2h137.8c13-0.1,25.5-5.4,34.7-14.8c9.2-9.3,14.3-21.9,14.4-35
	c0.1-6.5-1.2-12.9-3.7-18.9c-2.5-6-6.2-11.4-10.8-15.9c-4.5-4.6-9.9-8.3-15.8-10.8c-5.9-2.5-12.3-3.8-18.8-3.7H361.4v-42.4h137.9
	c24.1,0.1,47.3,9.9,64.3,27c17.1,17.2,26.7,40.4,26.9,64.7c0.1,18.6-5.5,36.7-16.1,51.9c-9.8,14.5-23.6,25.9-39.7,32.7
	c-16,5.1-32.6,7.6-49.3,7.5h-82.7V1019.6z"/>
<linearGradient id="SVGID_3_" gradientUnits="userSpaceOnUse" x1="569.3452" y1="1004.8966" x2="-16.4879" y2="771.8696" gradientTransform="matrix(1 0 0 -1 242.34 1883.04)">
	<stop  offset="0" style="stop-color:#C200FB"/>
	<stop  offset="0.4897" style="stop-color:#3772FF"/>
	<stop  offset="0.4898" style="stop-color:#3773FE"/>
	<stop  offset="1" style="stop-color:#5AC4BE"/>
</linearGradient>
<path class="st3" d="M589.5,1016.1h-48.2l-37.2-65.2c14.7-0.9,29.2-3.9,43.1-8.9L589.5,1016.1z"/>
<linearGradient id="SVGID_4_" gradientUnits="userSpaceOnUse" x1="506.5973" y1="1162.5356" x2="-79.2344" y2="929.5087" gradientTransform="matrix(1 0 0 -1 242.34 1883.04)">
	<stop  offset="0" style="stop-color:#C200FB"/>
	<stop  offset="0.4897" style="stop-color:#3772FF"/>
	<stop  offset="0.4898" style="stop-color:#3773FE"/>
	<stop  offset="1" style="stop-color:#5AC4BE"/>
</linearGradient>
<path class="st4" d="M690.1,749.7l28.5,15.9l28.5-15.9v-33.7l-28.5-16.6l-28.5,16.6V749.7z"/>
</svg>
